Sprint_08550001_forces_filt100Hz.mot
version=1
nRows=33
nColumns=19
inDegrees=yes
endheader
time	R_ground_force_vx	R_ground_force_vy	R_ground_force_vz	R_ground_force_px	R_ground_force_py	R_ground_force_pz	R_ground_torque_x	R_ground_torque_y	R_ground_torque_z	L_ground_force_vx	L_ground_force_vy	L_ground_force_vz	L_ground_force_px	L_ground_force_py	L_ground_force_pz	L_ground_torque_x	L_ground_torque_y	L_ground_torque_z	
1.792000	  0.000000	  0.000000	  0.000000	  1.209745	  0.000000	 -0.205866	  0.000000	  0.000000	  0.000000	  0.000000	  0.000000	  0.000000	  0.299689	  0.000000	 -0.365202	  0.000000	  0.000000	  0.000000
1.792500	  0.000000	  0.000000	  0.000000	  1.213248	  0.000000	 -0.205897	  0.000000	  0.000000	  0.000000	  0.000000	  0.000000	  0.000000	  0.297712	  0.000000	 -0.364847	  0.000000	  0.000000	  0.000000
1.793000	  0.000000	  0.000000	  0.000000	  1.216750	  0.000000	 -0.205928	  0.000000	  0.000000	  0.000000	  0.000000	  0.000000	  0.000000	  0.295735	  0.000000	 -0.364493	  0.000000	  0.000000	  0.000000
1.793500	  0.000000	  0.000000	  0.000000	  1.220252	  0.000000	 -0.205960	  0.000000	  0.000000	  0.000000	  0.000000	  0.000000	  0.000000	  0.293758	  0.000000	 -0.364139	  0.000000	  0.000000	  0.000000
1.794000	  0.000000	  0.000000	  0.000000	  1.223754	  0.000000	 -0.205991	  0.000000	  0.000000	  0.000000	  0.000000	  0.000000	  0.000000	  0.291781	  0.000000	 -0.363784	  0.000000	  0.000000	  0.000000
1.794500	  0.000000	  0.000000	  0.000000	  1.227257	  0.000000	 -0.206022	  0.000000	  0.000000	  0.000000	  0.000000	  0.000000	  0.000000	  0.289804	  0.000000	 -0.363430	  0.000000	  0.000000	  0.000000
1.795000	  0.000000	  0.000000	  0.000000	  1.230759	  0.000000	 -0.206053	  0.000000	  0.000000	  0.000000	  0.000000	  0.000000	  0.000000	  0.287827	  0.000000	 -0.363076	  0.000000	  0.000000	  0.000000
1.795500	  0.000000	  0.000000	  0.000000	  1.234117	  0.000000	 -0.206142	  0.000000	  0.000000	  0.000000	  0.000000	  0.000000	  0.000000	  0.285659	  0.000000	 -0.362720	  0.000000	  0.000000	  0.000000
1.796000	  0.000000	  0.000000	  0.000000	  1.237474	  0.000000	 -0.206231	  0.000000	  0.000000	  0.000000	  0.000000	  0.000000	  0.000000	  0.283490	  0.000000	 -0.362365	  0.000000	  0.000000	  0.000000
1.796500	  0.000000	  0.000000	  0.000000	  1.240832	  0.000000	 -0.206319	  0.000000	  0.000000	  0.000000	  0.000000	  0.000000	  0.000000	  0.281322	  0.000000	 -0.362009	  0.000000	  0.000000	  0.000000
1.797000	  0.000000	  0.000000	  0.000000	  1.244190	  0.000000	 -0.206408	  0.000000	  0.000000	  0.000000	  0.000000	  0.000000	  0.000000	  0.279154	  0.000000	 -0.361653	  0.000000	  0.000000	  0.000000
1.797500	  0.000000	  0.000000	  0.000000	  1.247547	  0.000000	 -0.206497	  0.000000	  0.000000	  0.000000	  0.000000	  0.000000	  0.000000	  0.276986	  0.000000	 -0.361298	  0.000000	  0.000000	  0.000000
1.798000	  0.000000	  0.000000	  0.000000	  1.250905	  0.000000	 -0.206586	  0.000000	  0.000000	  0.000000	  0.000000	  0.000000	  0.000000	  0.274817	  0.000000	 -0.360942	  0.000000	  0.000000	  0.000000
1.798500	  0.000000	  0.000000	  0.000000	  1.254263	  0.000000	 -0.206674	  0.000000	  0.000000	  0.000000	  0.000000	  0.000000	  0.000000	  0.272649	  0.000000	 -0.360587	  0.000000	  0.000000	  0.000000
1.799000	  0.000000	  0.000000	  0.000000	  1.257620	  0.000000	 -0.206763	  0.000000	  0.000000	  0.000000	  0.000000	  0.000000	  0.000000	  0.270481	  0.000000	 -0.360231	  0.000000	  0.000000	  0.000000
1.799500	  0.000000	  0.000000	  0.000000	  1.260978	  0.000000	 -0.206852	  0.000000	  0.000000	  0.000000	  0.000000	  0.000000	  0.000000	  0.268313	  0.000000	 -0.359875	  0.000000	  0.000000	  0.000000
1.800000	  0.000000	  0.000000	  0.000000	  1.264336	  0.000000	 -0.206941	  0.000000	  0.000000	  0.000000	  0.000000	  0.000000	  0.000000	  0.266145	  0.000000	 -0.359520	  0.000000	  0.000000	  0.000000
1.800500	  0.000000	  0.000000	  0.000000	  1.267465	  0.000000	 -0.206988	  0.000000	  0.000000	  0.000000	  0.000000	  0.000000	  0.000000	  0.264245	  0.000000	 -0.359192	  0.000000	  0.000000	  0.000000
1.801000	  0.000000	  0.000000	  0.000000	  1.270594	  0.000000	 -0.207036	  0.000000	  0.000000	  0.000000	  0.000000	  0.000000	  0.000000	  0.262346	  0.000000	 -0.358864	  0.000000	  0.000000	  0.000000
1.801500	  0.000000	  0.000000	  0.000000	  1.273724	  0.000000	 -0.207084	  0.000000	  0.000000	  0.000000	  0.000000	  0.000000	  0.000000	  0.260447	  0.000000	 -0.358536	  0.000000	  0.000000	  0.000000
1.802000	  0.000000	  0.000000	  0.000000	  1.276853	  0.000000	 -0.207131	  0.000000	  0.000000	  0.000000	  0.000000	  0.000000	  0.000000	  0.258548	  0.000000	 -0.358208	  0.000000	  0.000000	  0.000000
1.802500	  0.000000	  0.000000	  0.000000	  1.279982	  0.000000	 -0.207179	  0.000000	  0.000000	  0.000000	  0.000000	  0.000000	  0.000000	  0.256648	  0.000000	 -0.357880	  0.000000	  0.000000	  0.000000
1.803000	  0.000000	  0.000000	  0.000000	  1.283111	  0.000000	 -0.207226	  0.000000	  0.000000	  0.000000	  0.000000	  0.000000	  0.000000	  0.254749	  0.000000	 -0.357552	  0.000000	  0.000000	  0.000000
1.803500	  0.000000	  0.000000	  0.000000	  1.286241	  0.000000	 -0.207274	  0.000000	  0.000000	  0.000000	  0.000000	  0.000000	  0.000000	  0.252850	  0.000000	 -0.357224	  0.000000	  0.000000	  0.000000
1.804000	  0.000000	  0.000000	  0.000000	  1.289370	  0.000000	 -0.207322	  0.000000	  0.000000	  0.000000	  0.000000	  0.000000	  0.000000	  0.250951	  0.000000	 -0.356896	  0.000000	  0.000000	  0.000000
1.804500	  0.000000	  0.000000	  0.000000	  1.292499	  0.000000	 -0.207369	  0.000000	  0.000000	  0.000000	  0.000000	  0.000000	  0.000000	  0.249051	  0.000000	 -0.356568	  0.000000	  0.000000	  0.000000
1.805000	  0.000000	  0.000000	  0.000000	  1.295628	  0.000000	 -0.207417	  0.000000	  0.000000	  0.000000	  0.000000	  0.000000	  0.000000	  0.247152	  0.000000	 -0.356240	  0.000000	  0.000000	  0.000000
1.805500	  0.000000	  0.000000	  0.000000	  1.298542	  0.000000	 -0.207490	  0.000000	  0.000000	  0.000000	  0.000000	  0.000000	  0.000000	  0.245617	  0.000000	 -0.355820	  0.000000	  0.000000	  0.000000
1.806000	  0.000000	  0.000000	  0.000000	  1.301456	  0.000000	 -0.207563	  0.000000	  0.000000	  0.000000	  0.000000	  0.000000	  0.000000	  0.244083	  0.000000	 -0.355400	  0.000000	  0.000000	  0.000000
1.806500	  0.000000	  0.000000	  0.000000	  1.304369	  0.000000	 -0.207636	  0.000000	  0.000000	  0.000000	  0.000000	  0.000000	  0.000000	  0.242548	  0.000000	 -0.354981	  0.000000	  0.000000	  0.000000
1.807000	  0.000000	  0.000000	  0.000000	  1.307283	  0.000000	 -0.207708	  0.000000	  0.000000	  0.000000	  0.000000	  0.000000	  0.000000	  0.241013	  0.000000	 -0.354561	  0.000000	  0.000000	  0.000000
1.807500	  0.000000	  0.000000	  0.000000	  1.310196	  0.000000	 -0.207781	  0.000000	  0.000000	  0.000000	  0.000000	  0.000000	  0.000000	  0.239478	  0.000000	 -0.354141	  0.000000	  0.000000	  0.000000
1.808000	  0.000000	  0.000000	  0.000000	  1.313110	  0.000000	 -0.207854	  0.000000	  0.000000	  0.000000	  0.000000	  0.000000	  0.000000	  0.237944	  0.000000	 -0.353721	  0.000000	  0.000000	  0.000000
